<?xml version="1.0" encoding="UTF-8" standalone="no"?><!DOCTYPE svg PUBLIC "-//W3C//DTD SVG 1.1//EN" "http://www.w3.org/Graphics/SVG/1.1/DTD/svg11.dtd"><svg width="100%" height="100%" viewBox="0 0 174 48" version="1.1" xmlns="http://www.w3.org/2000/svg" xmlns:xlink="http://www.w3.org/1999/xlink" xml:space="preserve" xmlns:serif="http://www.serif.com/" style="fill-rule:evenodd;clip-rule:evenodd;stroke-linejoin:round;stroke-miterlimit:1.41421;"><title id="morphicFooterId">Morphic Home</title><g><g><path d="M82.706,11.922l0,20.093l-4.919,0l0,-12.589l-4.335,12.589l-4.252,0l-4.419,-12.589l0,12.589l-4.919,0l0,-20.093l6.003,0l5.503,14.007l5.335,-14.007l6.003,0Z" style="fill:#fff;fill-rule:nonzero;"/><path d="M96.546,16.841c1.251,0.667 2.251,1.584 2.918,2.835c0.751,1.251 1.084,2.668 1.084,4.335c0,1.668 -0.333,3.085 -1.084,4.336c-0.75,1.251 -1.667,2.168 -2.918,2.835c-1.25,0.667 -2.668,1 -4.252,1c-1.584,0 -3.001,-0.333 -4.252,-1c-1.25,-0.667 -2.251,-1.584 -3.001,-2.835c-0.751,-1.251 -1.084,-2.668 -1.084,-4.336c0,-1.667 0.333,-3.084 1.084,-4.335c0.75,-1.251 1.667,-2.168 2.918,-2.835c1.25,-0.667 2.668,-1 4.252,-1c1.667,0 3.085,0.333 4.335,1Zm-6.586,4.252c-0.667,0.667 -0.917,1.668 -0.917,2.918c0,1.251 0.333,2.252 1,2.919c0.667,0.667 1.417,1 2.335,1c0.917,0 1.75,-0.333 2.334,-1c0.667,-0.667 0.917,-1.668 0.917,-2.919c0,-1.25 -0.333,-2.251 -0.917,-2.918c-0.667,-0.667 -1.417,-1 -2.334,-1c-1.001,0 -1.835,0.333 -2.418,1Z" style="fill:#fff;fill-rule:nonzero;"/><path d="M109.636,16.675c1,-0.584 2.001,-0.834 3.168,-0.834l0,5.252l-1.417,0c-1.334,0 -2.335,0.251 -3.002,0.834c-0.75,0.584 -1.084,1.501 -1.084,2.835l0,7.253l-4.919,0l0,-15.924l4.919,0l0,3.001c0.584,-1 1.334,-1.834 2.335,-2.417Z" style="fill:#fff;fill-rule:nonzero;"/><path d="M127.561,16.758c1.001,0.667 1.834,1.584 2.501,2.835c0.584,1.25 0.917,2.668 0.917,4.335c0,1.668 -0.333,3.085 -0.917,4.336c-0.583,1.25 -1.417,2.167 -2.418,2.834c-1,0.667 -2.251,1.001 -3.501,1.001c-1.251,0 -2.251,-0.25 -3.168,-0.834c-0.918,-0.584 -1.501,-1.334 -1.918,-2.251l0,10.505l-4.919,0l0,-23.595l4.919,0l0,2.918c0.417,-0.917 1,-1.667 1.918,-2.251c0.917,-0.583 1.917,-0.833 3.168,-0.833c1.25,0.083 2.418,0.416 3.418,1Zm-7.587,4.419c-0.667,0.667 -1,1.667 -1,2.834c0,1.168 0.333,2.085 1,2.835c0.667,0.667 1.501,1.084 2.501,1.084c1.084,0 1.918,-0.333 2.502,-1c0.583,-0.667 0.917,-1.668 0.917,-2.835c0,-1.167 -0.334,-2.168 -1.001,-2.835c-0.667,-0.667 -1.501,-1 -2.501,-1c-0.917,-0.167 -1.751,0.166 -2.418,0.917Z" style="fill:#fff;fill-rule:nonzero;"/><path d="M147.237,17.675c1.084,1.251 1.584,2.918 1.584,5.003l0,9.254l-4.919,0l0,-8.671c0,-1.084 -0.25,-1.917 -0.833,-2.501c-0.584,-0.584 -1.334,-0.917 -2.252,-0.917c-1,0 -1.75,0.333 -2.334,0.917c-0.584,0.667 -0.834,1.501 -0.834,2.668l0,8.421l-4.919,0l0,-21.177l4.919,0l0,8.087c0.417,-0.917 1.167,-1.667 2.001,-2.251c0.917,-0.584 2.001,-0.834 3.168,-0.834c1.918,0.167 3.335,0.751 4.419,2.001Z" style="fill:#fff;fill-rule:nonzero;"/><path d="M156.241,16.008l0,15.924l-4.919,0l0,-15.924l4.919,0Z" style="fill:#fff;fill-rule:nonzero;"/><path d="M171.332,17.425c1.417,1.167 2.251,2.668 2.668,4.669l-5.169,0c-0.167,-0.667 -0.5,-1.251 -0.917,-1.584c-0.5,-0.417 -1.084,-0.584 -1.834,-0.584c-0.834,0 -1.585,0.334 -2.085,1.001c-0.583,0.667 -0.834,1.667 -0.834,3.001c0,1.334 0.251,2.251 0.834,2.918c0.584,0.667 1.251,1.001 2.085,1.001c0.75,0 1.334,-0.167 1.834,-0.584c0.5,-0.417 0.75,-0.917 0.917,-1.584l5.169,0c-0.333,2.001 -1.251,3.502 -2.585,4.669c-1.417,1.167 -3.084,1.667 -5.169,1.667c-1.584,0 -2.918,-0.333 -4.168,-1c-1.251,-0.667 -2.168,-1.584 -2.835,-2.835c-0.667,-1.25 -1.001,-2.668 -1.001,-4.335c0,-1.668 0.334,-3.168 1.001,-4.336c0.667,-1.25 1.584,-2.167 2.835,-2.834c1.25,-0.667 2.584,-1.001 4.168,-1.001c1.918,0.084 3.669,0.667 5.086,1.751Z" style="fill:#fff;fill-rule:nonzero;"/><path d="M153.907,14.257c-1.417,0 -2.668,-1.167 -2.668,-2.668c0,-1.501 1.167,-2.668 2.668,-2.668c1.417,0 2.668,1.167 2.668,2.668c0,1.501 -1.251,2.668 -2.668,2.668Z" style="fill:#fff;fill-rule:nonzero;"/></g><g><path d="M24.011,0l-3.084,0c-0.25,0 -0.501,0.25 -0.501,0.5l0,4.252c0,0.167 -0.166,0.334 -0.416,0.417c-0.667,0.167 -1.418,0.334 -2.085,0.584c-0.166,0.083 -0.417,0 -0.5,-0.167l-2.501,-3.502c-0.167,-0.166 -0.417,-0.25 -0.584,-0.166l-4.752,2.751c-0.167,0.083 -0.25,0.333 -0.167,0.584l1.834,3.918c0.084,0.167 0,0.417 -0.083,0.584c-0.5,0.5 -1,1 -1.501,1.5c-0.166,0.167 -0.333,0.167 -0.583,0.084l-3.919,-1.834c-0.167,-0.084 -0.417,0 -0.583,0.166l-2.752,4.753c-0.083,0.166 -0.083,0.416 0.167,0.583l3.502,2.501c0.166,0.084 0.25,0.334 0.166,0.501c-0.25,0.667 -0.416,1.334 -0.583,2.084c-0.084,0.167 -0.25,0.333 -0.417,0.333l-4.252,0.417c-0.25,0 -0.417,0.25 -0.417,0.417l0,5.503c0,0.25 0.167,0.417 0.417,0.417l4.252,0.417c0.167,0 0.333,0.166 0.417,0.416c0.167,0.667 0.333,1.418 0.583,2.085c0.084,0.166 0,0.417 -0.166,0.5l-3.502,2.501c-0.167,0.167 -0.25,0.417 -0.167,0.584l2.752,4.752c0.083,0.167 0.333,0.25 0.583,0.167l3.919,-1.834c0.166,-0.084 0.417,0 0.583,0.083c0.501,0.5 1.001,1 1.501,1.501c0.167,0.166 0.167,0.333 0.083,0.583l-1.834,3.919c-0.083,0.167 0,0.417 0.167,0.583l4.752,2.752c0.167,0.083 0.417,0.083 0.584,-0.167l2.501,-3.502c0.083,-0.166 0.334,-0.25 0.5,-0.166c0.667,0.25 1.334,0.416 2.085,0.583c0.166,0.084 0.333,0.25 0.333,0.417l0.417,4.252c0,0.25 0.25,0.417 0.417,0.417l5.502,0c0.251,0 0.417,-0.167 0.417,-0.417l0.417,-4.252c0,-0.167 0.167,-0.333 0.417,-0.417c0.667,-0.167 1.417,-0.333 2.084,-0.583c0.167,-0.084 0.417,0 0.501,0.166l2.501,3.502c0.167,0.167 0.417,0.25 0.583,0.167l4.753,-2.752c0.166,-0.083 0.25,-0.333 0.166,-0.583l-1.834,-3.919c-0.083,-0.166 0,-0.417 0.084,-0.583c0.5,-0.501 1,-1.001 1.5,-1.501c0.167,-0.167 0.334,-0.167 0.584,-0.083l3.918,1.834c0.167,0.083 0.417,0 0.584,-0.167l2.751,-4.752c0.084,-0.167 0.084,-0.417 -0.166,-0.584l-3.502,-2.501c-0.167,-0.083 -0.25,-0.334 -0.167,-0.5c0.25,-0.667 0.417,-1.334 0.584,-2.085c0.083,-0.166 0.25,-0.333 0.417,-0.333l4.252,0c0.25,0 0.5,-0.25 0.5,-0.5l0,-3.169c0,-13.256 -10.755,-24.011 -24.012,-24.011Zm18.593,24.011l-9.922,0c-0.25,0 -0.5,-0.083 -0.75,-0.25c-1.501,-1.334 -3.418,-2.167 -5.586,-2.167c-3.668,0 -6.587,3.001 -6.587,6.586c0,2.918 2.335,5.253 5.253,5.253c1.251,0 2.334,-0.501 3.085,-1.334c0.917,-1.001 0.333,-2.585 -0.834,-2.835c-0.167,-0.083 -0.417,0.083 -0.417,0.25c-0.167,0.834 -0.917,1.501 -1.834,1.501c-1.584,0 -2.835,-1.251 -2.835,-2.835c0,-2.334 1.918,-4.169 4.169,-4.169c3.335,0 6.003,2.668 6.003,6.003c0,4.669 -3.752,8.421 -8.421,8.421c-7.92,0 -14.423,-6.42 -14.423,-14.424c0,-1.5 0.25,-2.918 0.667,-4.252c0.25,-0.917 0.667,-1.75 1.083,-2.584c0.417,-0.834 1.001,-1.584 1.584,-2.335c2.585,-3.084 6.337,-5.085 10.672,-5.252l1.251,0c0.25,0 0.5,-0.25 0.5,-0.5l0,-3.752c0,-0.25 0.167,-0.417 0.417,-0.417c9.588,0.834 17.175,8.754 17.425,18.509c0,0.333 -0.25,0.583 -0.5,0.583Z" style="fill:#fff;fill-rule:nonzero;"/><path d="M35.851,16.425c-1.418,0 -2.668,1.167 -2.668,2.667c0,1.418 1.167,2.668 2.668,2.668c1.417,0 2.667,-1.167 2.667,-2.668c0,-1.5 -1.167,-2.667 -2.667,-2.667Z" style="fill:#fff;fill-rule:nonzero;"/></g></g></svg>