<?xml version="1.0" encoding="UTF-8" standalone="no"?><!DOCTYPE svg PUBLIC "-//W3C//DTD SVG 1.1//EN" "http://www.w3.org/Graphics/SVG/1.1/DTD/svg11.dtd"><svg width="100%" height="100%" viewBox="0 0 209 58" version="1.1" xmlns="http://www.w3.org/2000/svg" xmlns:xlink="http://www.w3.org/1999/xlink" xml:space="preserve" xmlns:serif="http://www.serif.com/" style="fill-rule:evenodd;clip-rule:evenodd;stroke-linejoin:round;stroke-miterlimit:1.41421;" role="img"><title id="morphicLogoID">Morphic Home</title><g><path d="M25.1,0c-0.3,0 -0.6,0.3 -0.6,0.6l0,5.1c0,0.2 -0.2,0.4 -0.5,0.5c-0.8,0.2 -1.7,0.4 -2.5,0.7c-0.2,0.1 -0.5,0 -0.6,-0.2l-3,-4.2c-0.2,-0.2 -0.5,-0.3 -0.7,-0.2l-5.7,3.3c-0.2,0.1 -0.3,0.4 -0.2,0.7l2.2,4.7c0.1,0.2 0,0.5 -0.1,0.7c-0.6,0.6 -1.2,1.2 -1.8,1.8c-0.2,0.2 -0.4,0.2 -0.7,0.1l-4.7,-2.2c-0.2,-0.1 -0.5,0 -0.7,0.2l-3.3,5.7c-0.1,0.2 -0.1,0.5 0.2,0.7l4.2,3c0.2,0.1 0.3,0.4 0.2,0.6c-0.3,0.8 -0.5,1.6 -0.7,2.5c-0.1,0.2 -0.3,0.4 -0.5,0.4l-5.1,0.5c-0.3,0 -0.5,0.3 -0.5,0.5l0,6.6c0,0.3 0.2,0.5 0.5,0.5l5.1,0.5c0.2,0 0.4,0.2 0.5,0.5c0.2,0.8 0.4,1.7 0.7,2.5c0.1,0.2 0,0.5 -0.2,0.6l-4.2,3c-0.2,0.2 -0.3,0.5 -0.2,0.7l3.3,5.7c0.1,0.2 0.4,0.3 0.7,0.2l4.7,-2.2c0.2,-0.1 0.5,0 0.7,0.1c0.6,0.6 1.2,1.2 1.8,1.8c0.2,0.2 0.2,0.4 0.1,0.7l-2.2,4.7c-0.1,0.2 0,0.5 0.2,0.7l5.7,3.3c0.2,0.1 0.5,0.1 0.7,-0.2l3,-4.2c0.1,-0.2 0.4,-0.3 0.6,-0.2c0.8,0.3 1.6,0.5 2.5,0.7c0.2,0.1 0.4,0.3 0.4,0.5l0.5,5.1c0,0.3 0.3,0.5 0.5,0.5l6.6,0c0.3,0 0.5,-0.2 0.5,-0.5l0.5,-5.1c0,-0.2 0.2,-0.4 0.5,-0.5c0.8,-0.2 1.7,-0.4 2.5,-0.7c0.2,-0.1 0.5,0 0.6,0.2l3,4.2c0.2,0.2 0.5,0.3 0.7,0.2l5.7,-3.3c0.2,-0.1 0.3,-0.4 0.2,-0.7l-2.2,-4.7c-0.1,-0.2 0,-0.5 0.1,-0.7c0.6,-0.6 1.2,-1.2 1.8,-1.8c0.2,-0.2 0.4,-0.2 0.7,-0.1l4.7,2.2c0.2,0.1 0.5,0 0.7,-0.2l3.3,-5.7c0.1,-0.2 0.1,-0.5 -0.2,-0.7l-4.2,-3c-0.2,-0.1 -0.3,-0.4 -0.2,-0.6c0.3,-0.8 0.5,-1.6 0.7,-2.5c0.1,-0.2 0.3,-0.4 0.5,-0.4l5.1,0c0.3,0 0.6,-0.3 0.6,-0.6l0,-3.8c0,-15.9 -12.9,-28.8 -28.8,-28.8l-3.7,0Z" style="fill:#002957;fill-rule:nonzero;"/><path d="M30.9,6c-0.3,0 -0.5,0.2 -0.5,0.5l0,4.5c0,0.3 -0.3,0.6 -0.6,0.6l-1.5,0c-5.2,0.2 -9.7,2.6 -12.8,6.3c-0.7,0.9 -1.3,1.8 -1.9,2.8c-0.5,1 -1,2 -1.3,3.1c-0.5,1.6 -0.8,3.4 -0.8,5.1c0,9.5 7.7,17.3 17.3,17.3c5.6,0 10.1,-4.5 10.1,-10.1c0,-4 -3.2,-7.2 -7.2,-7.2c-2.8,0 -5,2.3 -5,5c0,1.9 1.5,3.4 3.4,3.4c1.1,0 2,-0.8 2.2,-1.8c0,-0.2 0.3,-0.4 0.5,-0.3c1.5,0.3 2.2,2.2 1,3.4c-0.9,1 -2.3,1.6 -3.7,1.6c-3.5,0 -6.3,-2.8 -6.3,-6.3c0,-4.4 3.6,-7.9 7.9,-7.9c2.6,0 4.9,1 6.7,2.6c0.2,0.2 0.6,0.3 0.9,0.3l11.9,0c0.3,0 0.6,-0.3 0.5,-0.6c-0.2,-11.8 -9.3,-21.3 -20.8,-22.3Z" style="fill:url(#_Linear1);fill-rule:nonzero;"/><path d="M43.1,26c-1.7,0 -3.2,-1.4 -3.2,-3.2c0,-1.7 1.4,-3.2 3.2,-3.2c1.7,0 3.2,1.4 3.2,3.2c0,1.8 -1.4,3.2 -3.2,3.2Z" style="fill:#002957;fill-rule:nonzero;"/></g><g><path class="letter" d="M99.3,14.3l0,24.1l-5.9,0l0,-15.1l-5.2,15.1l-5.1,0l-5.3,-15.1l0,15.1l-5.9,0l0,-24.1l7.2,0l6.6,16.8l6.4,-16.8l7.2,0Z" style="fill:#002957;fill-rule:nonzero;"/><path class="letter" d="M115.9,20.2c1.5,0.8 2.7,1.9 3.5,3.4c0.9,1.5 1.3,3.2 1.3,5.2c0,2 -0.4,3.7 -1.3,5.2c-0.9,1.5 -2,2.6 -3.5,3.4c-1.5,0.8 -3.2,1.2 -5.1,1.2c-1.9,0 -3.6,-0.4 -5.1,-1.2c-1.5,-0.8 -2.7,-1.9 -3.6,-3.4c-0.9,-1.5 -1.3,-3.2 -1.3,-5.2c0,-2 0.4,-3.7 1.3,-5.2c0.9,-1.5 2,-2.6 3.5,-3.4c1.5,-0.8 3.2,-1.2 5.1,-1.2c2,0 3.7,0.4 5.2,1.2Zm-7.9,5.1c-0.8,0.8 -1.1,2 -1.1,3.5c0,1.5 0.4,2.7 1.2,3.5c0.8,0.8 1.7,1.2 2.8,1.2c1.1,0 2.1,-0.4 2.8,-1.2c0.8,-0.8 1.1,-2 1.1,-3.5c0,-1.5 -0.4,-2.7 -1.1,-3.5c-0.8,-0.8 -1.7,-1.2 -2.8,-1.2c-1.2,0 -2.2,0.4 -2.9,1.2Z" style="fill:#002957;fill-rule:nonzero;"/><path class="letter" d="M131.6,20c1.2,-0.7 2.4,-1 3.8,-1l0,6.3l-1.7,0c-1.6,0 -2.8,0.3 -3.6,1c-0.9,0.7 -1.3,1.8 -1.3,3.4l0,8.7l-5.9,0l0,-19.1l5.9,0l0,3.6c0.7,-1.2 1.6,-2.2 2.8,-2.9Z" style="fill:#002957;fill-rule:nonzero;"/><path class="letter" d="M153.1,20.1c1.2,0.8 2.2,1.9 3,3.4c0.7,1.5 1.1,3.2 1.1,5.2c0,2 -0.4,3.7 -1.1,5.2c-0.7,1.5 -1.7,2.6 -2.9,3.4c-1.2,0.8 -2.7,1.2 -4.2,1.2c-1.5,0 -2.7,-0.3 -3.8,-1c-1.1,-0.7 -1.8,-1.6 -2.3,-2.7l0,12.6l-5.9,0l0,-28.3l5.9,0l0,3.5c0.5,-1.1 1.2,-2 2.3,-2.7c1.1,-0.7 2.3,-1 3.8,-1c1.5,0.1 2.9,0.5 4.1,1.2Zm-9.1,5.3c-0.8,0.8 -1.2,2 -1.2,3.4c0,1.4 0.4,2.5 1.2,3.4c0.8,0.8 1.8,1.3 3,1.3c1.3,0 2.3,-0.4 3,-1.2c0.7,-0.8 1.1,-2 1.1,-3.4c0,-1.4 -0.4,-2.6 -1.2,-3.4c-0.8,-0.8 -1.8,-1.2 -3,-1.2c-1.1,-0.2 -2.1,0.2 -2.9,1.1Z" style="fill:#002957;fill-rule:nonzero;"/><path class="letter" d="M176.7,21.2c1.3,1.5 1.9,3.5 1.9,6l0,11.1l-5.9,0l0,-10.4c0,-1.3 -0.3,-2.3 -1,-3c-0.7,-0.7 -1.6,-1.1 -2.7,-1.1c-1.2,0 -2.1,0.4 -2.8,1.1c-0.7,0.8 -1,1.8 -1,3.2l0,10.1l-5.9,0l0,-25.4l5.9,0l0,9.7c0.5,-1.1 1.4,-2 2.4,-2.7c1.1,-0.7 2.4,-1 3.8,-1c2.3,0.2 4,0.9 5.3,2.4Z" style="fill:#002957;fill-rule:nonzero;"/><path class="letter" d="M187.5,19.2l0,19.1l-5.9,0l0,-19.1l5.9,0Z" style="fill:#002957;fill-rule:nonzero;"/><path class="letter" d="M205.6,20.9c1.7,1.4 2.7,3.2 3.2,5.6l-6.2,0c-0.2,-0.8 -0.6,-1.5 -1.1,-1.9c-0.6,-0.5 -1.3,-0.7 -2.2,-0.7c-1,0 -1.9,0.4 -2.5,1.2c-0.7,0.8 -1,2 -1,3.6c0,1.6 0.3,2.7 1,3.5c0.7,0.8 1.5,1.2 2.5,1.2c0.9,0 1.6,-0.2 2.2,-0.7c0.6,-0.5 0.9,-1.1 1.1,-1.9l6.2,0c-0.4,2.4 -1.5,4.2 -3.1,5.6c-1.7,1.4 -3.7,2 -6.2,2c-1.9,0 -3.5,-0.4 -5,-1.2c-1.5,-0.8 -2.6,-1.9 -3.4,-3.4c-0.8,-1.5 -1.2,-3.2 -1.2,-5.2c0,-2 0.4,-3.8 1.2,-5.2c0.8,-1.5 1.9,-2.6 3.4,-3.4c1.5,-0.8 3.1,-1.2 5,-1.2c2.3,0.1 4.4,0.8 6.1,2.1Z" style="fill:#002957;fill-rule:nonzero;"/><path class="letter" d="M184.7,17.1c-1.7,0 -3.2,-1.4 -3.2,-3.2c0,-1.8 1.4,-3.2 3.2,-3.2c1.7,0 3.2,1.4 3.2,3.2c0,1.8 -1.5,3.2 -3.2,3.2Z" style="fill:#002957;fill-rule:nonzero;"/></g><defs><linearGradient id="_Linear1" x1="0" y1="0" x2="1" y2="0" gradientUnits="userSpaceOnUse" gradientTransform="matrix(2.45334e-15,-40.0661,40.0661,2.45334e-15,31.6754,46.0869)"><stop offset="0" style="stop-color:#008145;stop-opacity:1"/><stop offset="0.19" style="stop-color:#00924c;stop-opacity:1"/><stop offset="0.43" style="stop-color:#3fa554;stop-opacity:1"/><stop offset="0.65" style="stop-color:#66b55a;stop-opacity:1"/><stop offset="0.85" style="stop-color:#7cc05f;stop-opacity:1"/><stop offset="1" style="stop-color:#84c661;stop-opacity:1"/></linearGradient></defs></svg>