<?xml version="1.0" encoding="UTF-8" standalone="no"?><!DOCTYPE svg PUBLIC "-//W3C//DTD SVG 1.1//EN" "http://www.w3.org/Graphics/SVG/1.1/DTD/svg11.dtd"><svg width="32px" height="32px" viewBox="0 0 32 32" version="1.1" xmlns="http://www.w3.org/2000/svg" xmlns:xlink="http://www.w3.org/1999/xlink" xml:space="preserve" xmlns:serif="http://www.serif.com/" style="fill-rule:evenodd;clip-rule:evenodd;stroke-linejoin:round;stroke-miterlimit:1.41421;"><path d="M26.517,10.435c-0.163,-0.041 -0.245,-0.164 -0.204,-0.328c0.286,-0.941 0.327,-1.964 0.041,-3.069c-0.573,-2.25 -2.496,-3.969 -4.787,-4.255c-1.637,-0.205 -3.11,0.245 -4.296,1.145c-0.123,0.082 -0.287,0.082 -0.369,-0.081c-1.104,-1.801 -3.15,-2.906 -5.441,-2.701c-2.619,0.245 -4.787,2.373 -5.115,4.992c-0.122,1.023 0.041,2.005 0.368,2.865c0.082,0.163 -0.04,0.327 -0.204,0.327c-2.578,0.327 -4.624,2.537 -4.624,5.238c0,0.205 0,0.409 0.041,0.573c0,0.123 0.123,0.204 0.246,0.204l8.388,0c0.286,-2.619 2.536,-4.624 5.237,-4.624c2.7,0 4.909,2.046 5.237,4.624l8.469,0c0.123,0 0.246,-0.081 0.246,-0.204c0.04,-0.205 0.04,-0.368 0.04,-0.573c0.041,-1.923 -1.35,-3.642 -3.273,-4.133Z" style="fill:#72c6ef;fill-rule:nonzero;"/><path d="M29.545,16.696l-8.469,0c-0.287,2.618 -2.537,4.624 -5.238,4.624c-2.7,0 -4.909,-2.046 -5.236,-4.624l-8.47,0c-0.123,0 -0.246,0.122 -0.246,0.245l0,1.351c0,0.122 0.083,0.245 0.246,0.245l2.496,0.246c0.122,0 0.205,0.081 0.205,0.204c0.081,0.41 0.204,0.819 0.327,1.228c0.041,0.123 0,0.204 -0.082,0.286l-2.046,1.474c-0.123,0.081 -0.123,0.204 -0.082,0.327l1.596,2.741c0.082,0.123 0.204,0.164 0.328,0.123l2.29,-1.064c0.082,-0.04 0.205,0 0.287,0.082c0.287,0.328 0.573,0.614 0.9,0.9c0.082,0.082 0.123,0.205 0.082,0.287l-1.064,2.291c-0.041,0.123 0,0.246 0.123,0.328l2.741,1.596c0.123,0.082 0.246,0.041 0.328,-0.082l1.472,-2.046c0.082,-0.082 0.164,-0.123 0.287,-0.082c0.409,0.123 0.818,0.245 1.227,0.327c0.123,0.041 0.205,0.123 0.205,0.205l0.245,2.496c0,0.123 0.123,0.245 0.246,0.245l3.191,0c0.123,0 0.246,-0.081 0.246,-0.245l0.245,-2.496c0,-0.123 0.082,-0.205 0.205,-0.205c0.409,-0.082 0.818,-0.204 1.227,-0.327c0.123,-0.041 0.205,0 0.287,0.082l1.472,2.046c0.082,0.123 0.205,0.123 0.328,0.082l2.741,-1.596c0.123,-0.082 0.164,-0.205 0.123,-0.328l-1.064,-2.291c-0.041,-0.082 0,-0.205 0.082,-0.287c0.327,-0.286 0.614,-0.572 0.9,-0.9c0.082,-0.082 0.205,-0.122 0.287,-0.082l2.291,1.064c0.122,0.041 0.245,0 0.327,-0.123l1.596,-2.741c0.082,-0.123 0.041,-0.246 -0.082,-0.327l-2.046,-1.474c-0.082,-0.082 -0.123,-0.163 -0.082,-0.286c0.123,-0.409 0.246,-0.818 0.328,-1.228c0.04,-0.123 0.122,-0.204 0.204,-0.204l2.496,-0.246c0.123,0 0.245,-0.123 0.245,-0.245l0,-1.351c0,-0.123 -0.122,-0.245 -0.245,-0.245Z" style="fill:#034ea2;fill-rule:nonzero;"/><path d="M31.018,15.427c0.041,-0.245 0.041,-0.491 0.041,-0.737c0,-2.25 -1.35,-4.255 -3.355,-5.115c0.164,-0.941 0.082,-1.882 -0.123,-2.782c-0.696,-2.742 -3.027,-4.788 -5.81,-5.156c-0.327,-0.041 -0.614,-0.041 -0.941,-0.041c-1.227,0 -2.373,0.327 -3.437,0.9c-1.309,-1.555 -3.232,-2.496 -5.319,-2.496c-0.245,0 -0.45,0 -0.695,0.041c-3.191,0.327 -5.81,2.864 -6.219,6.056c-0.123,0.819 -0.082,1.596 0.123,2.415c-2.66,0.859 -4.542,3.355 -4.542,6.219c0,0.246 0,0.492 0.041,0.737c0.041,0.246 0.123,0.45 0.245,0.655c-0.204,0.245 -0.327,0.573 -0.327,0.9l0,1.35c0,0.778 0.573,1.392 1.35,1.474l1.76,0.163l-1.432,1.023c-0.614,0.45 -0.819,1.269 -0.409,1.964l1.595,2.742c0.246,0.45 0.736,0.737 1.269,0.737c0.204,0 0.409,-0.041 0.613,-0.123l1.596,-0.737l-0.737,1.596c-0.327,0.696 -0.041,1.514 0.614,1.924l2.741,1.595c0.246,0.123 0.491,0.205 0.737,0.205c0.491,0 0.941,-0.246 1.227,-0.614l1.023,-1.432l0.164,1.759c0.082,0.778 0.696,1.351 1.473,1.351l3.191,0c0.777,0 1.391,-0.573 1.473,-1.351l0.164,-1.759l1.023,1.432c0.286,0.409 0.736,0.614 1.227,0.614c0.245,0 0.532,-0.082 0.737,-0.205l2.741,-1.595c0.655,-0.369 0.941,-1.187 0.614,-1.883l-0.737,-1.596l1.596,0.737c0.204,0.082 0.409,0.123 0.613,0.123c0.533,0 1.023,-0.287 1.269,-0.737l1.595,-2.742c0.369,-0.654 0.205,-1.514 -0.409,-1.964l-1.432,-1.023l1.76,-0.163c0.777,-0.082 1.35,-0.696 1.35,-1.474l0,-1.35c0,-0.328 -0.123,-0.614 -0.286,-0.859c0.122,-0.328 0.204,-0.532 0.245,-0.778Zm-24.467,-6.015c0.163,-0.041 0.286,-0.205 0.204,-0.328c-0.368,-0.859 -0.491,-1.841 -0.368,-2.864c0.327,-2.619 2.496,-4.706 5.115,-4.993c0.204,0 0.409,-0.04 0.572,-0.04c2.046,0 3.847,1.105 4.869,2.701c0.041,0.081 0.123,0.122 0.205,0.122c0.041,0 0.123,0 0.164,-0.041c0.981,-0.736 2.168,-1.227 3.518,-1.227c0.246,0 0.491,0 0.777,0.041c2.292,0.286 4.215,2.005 4.788,4.255c0.286,1.064 0.245,2.128 -0.041,3.069c-0.041,0.164 0.041,0.287 0.204,0.328c1.923,0.491 3.315,2.21 3.315,4.255c0,0.205 0,0.369 -0.042,0.574c0,0.122 -0.122,0.204 -0.245,0.204l-8.47,0c-0.286,-2.619 -2.536,-4.624 -5.237,-4.624c-2.7,0 -4.909,2.046 -5.236,4.624l-8.388,0c-0.123,0 -0.246,-0.082 -0.246,-0.204c-0.04,-0.205 -0.04,-0.41 -0.04,-0.574c-0.042,-2.741 1.963,-4.951 4.582,-5.278Zm13.297,7.161c-0.245,2.046 -1.964,3.56 -4.01,3.56c-2.045,0 -3.764,-1.514 -4.009,-3.56l0,-0.941c0.245,-2.046 1.964,-3.56 4.009,-3.56c2.046,0 3.765,1.514 4.01,3.56l0,0.941Zm9.942,1.719c0,0.122 -0.081,0.245 -0.245,0.245l-2.496,0.246c-0.123,0 -0.204,0.081 -0.204,0.204c-0.082,0.41 -0.205,0.819 -0.328,1.228c-0.041,0.123 0,0.204 0.082,0.286l2.046,1.474c0.123,0.081 0.123,0.204 0.082,0.327l-1.596,2.741c-0.041,0.082 -0.122,0.123 -0.205,0.123c-0.041,0 -0.081,0 -0.122,-0.041l-2.291,-1.063c-0.042,0 -0.082,-0.041 -0.123,-0.041c-0.082,0 -0.123,0.041 -0.205,0.081c-0.286,0.328 -0.573,0.614 -0.9,0.901c-0.082,0.081 -0.123,0.204 -0.082,0.286l1.064,2.292c0.041,0.122 0,0.245 -0.122,0.327l-2.742,1.596c-0.041,0.041 -0.082,0.041 -0.123,0.041c-0.082,0 -0.164,-0.041 -0.204,-0.123l-1.473,-2.046c-0.041,-0.082 -0.123,-0.123 -0.205,-0.123c-0.041,0 -0.041,0 -0.082,0c-0.409,0.123 -0.818,0.246 -1.227,0.328c-0.123,0.04 -0.205,0.122 -0.205,0.204l-0.245,2.496c0,0.123 -0.123,0.246 -0.246,0.246l-3.191,0c-0.123,0 -0.245,-0.082 -0.245,-0.246l-0.246,-2.496c0,-0.123 -0.082,-0.204 -0.204,-0.204c-0.41,-0.082 -0.819,-0.205 -1.228,-0.328c-0.041,0 -0.041,0 -0.082,0c-0.082,0 -0.164,0.041 -0.204,0.123l-1.474,2.046c-0.04,0.082 -0.122,0.123 -0.204,0.123c-0.041,0 -0.082,0 -0.123,-0.041l-2.741,-1.596c-0.123,-0.082 -0.164,-0.205 -0.123,-0.327l1.064,-2.292c0.041,-0.082 0,-0.205 -0.082,-0.286c-0.327,-0.287 -0.613,-0.573 -0.9,-0.901c-0.041,-0.04 -0.123,-0.081 -0.205,-0.081c-0.041,0 -0.081,0 -0.122,0.041l-2.292,1.063c-0.041,0 -0.081,0.041 -0.122,0.041c-0.082,0 -0.164,-0.041 -0.205,-0.123l-1.595,-2.741c-0.082,-0.123 -0.041,-0.246 0.081,-0.327l2.046,-1.474c0.082,-0.082 0.123,-0.163 0.082,-0.286c-0.123,-0.409 -0.245,-0.818 -0.328,-1.228c-0.04,-0.123 -0.122,-0.204 -0.204,-0.204l-2.496,-0.246c-0.123,0 -0.245,-0.123 -0.245,-0.245l0,-1.351c0,-0.123 0.122,-0.245 0.245,-0.245l8.469,0c0.287,2.618 2.538,4.624 5.238,4.624c2.7,0 4.909,-2.046 5.237,-4.624l8.469,0c0.123,0 0.246,0.122 0.246,0.245l0,1.351l0.081,0Z" style="fill:#fff;fill-rule:nonzero;"/></svg>